<svg xmlns="http://www.w3.org/2000/svg" xmlns:xlink="http://www.w3.org/1999/xlink">
    <symbol id="logo" viewBox="0 0 139 34">
        <path
                d="M5.94602 27H0.65625L7.52699 6.63638H14.0795L20.9503 27H15.6605L10.8778 11.7671H10.7188L5.94602 27ZM5.24006 18.9858H16.2969V22.7244H5.24006V18.9858Z"
        />
        <path
                d="M44.721 12.7415C44.6547 12.0123 44.3597 11.4456 43.836 11.0412C43.319 10.6302 42.5799 10.4247 41.6187 10.4247C40.9823 10.4247 40.452 10.5076 40.0278 10.6733C39.6035 10.839 39.2853 11.0677 39.0732 11.3594C38.8611 11.6444 38.7517 11.9726 38.7451 12.3438C38.7318 12.6487 38.7915 12.9172 38.9241 13.1492C39.0633 13.3812 39.2621 13.5867 39.5207 13.7656C39.7858 13.938 40.104 14.0905 40.4752 14.223C40.8464 14.3556 41.264 14.4716 41.7281 14.571L43.4781 14.9688C44.4856 15.1875 45.3739 15.4792 46.1428 15.8438C46.9184 16.2084 47.568 16.6425 48.0917 17.1463C48.622 17.6501 49.023 18.2301 49.2948 18.8864C49.5666 19.5426 49.7058 20.2784 49.7124 21.0938C49.7058 22.3798 49.381 23.4834 48.738 24.4048C48.095 25.3262 47.1703 26.0322 45.9639 26.5227C44.764 27.0133 43.3156 27.2585 41.6187 27.2585C39.9151 27.2585 38.4302 27.0033 37.1641 26.4929C35.898 25.9825 34.9137 25.2069 34.211 24.1662C33.5084 23.1255 33.1471 21.8097 33.1272 20.2188H37.8403C37.88 20.875 38.0557 21.4219 38.3673 21.8594C38.6788 22.2969 39.1064 22.6283 39.6499 22.8537C40.2001 23.0791 40.8365 23.1918 41.559 23.1918C42.2219 23.1918 42.7853 23.1023 43.2494 22.9233C43.72 22.7443 44.0813 22.4958 44.3332 22.1776C44.5851 21.8594 44.7143 21.4948 44.721 21.0838C44.7143 20.6994 44.595 20.3712 44.363 20.0994C44.131 19.821 43.773 19.5824 43.2891 19.3835C42.8119 19.178 42.202 18.9891 41.4596 18.8168L39.3317 18.3196C37.5685 17.9153 36.1798 17.2623 35.1656 16.3608C34.1513 15.4527 33.6476 14.2263 33.6542 12.6818C33.6476 11.4224 33.9856 10.3187 34.6684 9.37076C35.3512 8.42284 36.2958 7.68373 37.5022 7.15343C38.7086 6.62312 40.0841 6.35797 41.6286 6.35797C43.2063 6.35797 44.5751 6.62644 45.7352 7.16337C46.9018 7.69367 47.8067 8.43941 48.4496 9.40059C49.0926 10.3618 49.4208 11.4754 49.434 12.7415H44.721Z"
        />
        <path
                d="M67.1741 27H61.8844L68.7551 6.63638H75.3077L82.1784 27H76.8886L72.106 11.7671H71.9469L67.1741 27ZM66.4682 18.9858H77.525V22.7244H66.4682V18.9858Z"
        />
        <path d="M95.5709 27V6.63638H100.493V23.0029H108.964V27H95.5709Z"/>
        <path d="M122.712 27V6.63638H136.911V10.6335H127.634V14.8097H136.185V18.8168H127.634V23.0029H136.911V27H122.712Z"
        />
    </symbol>

    <symbol id="search" viewBox="0 0 24 24">
        <path
                d="M10.2865 4C13.7584 4 16.573 6.81368 16.573 10.2845C16.573 11.7109 16.0976 13.0263 15.2966 14.0811L19.7493 18.5375C20.0838 18.8723 20.0835 19.4149 19.7486 19.7494C19.4136 20.0838 18.8708 20.0835 18.5363 19.7487L14.0842 15.2932C13.0291 16.0939 11.7133 16.5691 10.2865 16.5691C6.81455 16.5691 4 13.7554 4 10.2845C4 6.81368 6.81455 4 10.2865 4ZM10.2865 5.71387C7.76145 5.71387 5.71448 7.76022 5.71448 10.2845C5.71448 12.8089 7.76145 14.8552 10.2865 14.8552C12.8115 14.8552 14.8585 12.8089 14.8585 10.2845C14.8585 7.76022 12.8115 5.71387 10.2865 5.71387Z"
                fill="#686E81"/>
    </symbol>

    <symbol id="menu" viewBox="0 0 24 24">
        <path d="m3.0002 6c0-0.55228 0.44772-1 1-1h16c0.5523 0 1 0.44772 1 1s-0.4477 1-1 1h-16c-0.55228 0-1-0.44772-1-1z"/>
        <path d="m3 18c0-0.5523 0.44772-1 1-1h16c0.5523 0 1 0.4477 1 1s-0.4477 1-1 1h-16c-0.55228 0-1-0.4477-1-1z"/>
        <path d="m4 11c-0.55228 0-1 0.4477-1 1s0.44772 1 1 1h16c0.5523 0 1-0.4477 1-1s-0.4477-1-1-1h-16z"/>
    </symbol>

    <symbol id="filter" viewBox="0 0 20 20">
        <path d="m6.9467 9.8446c0.01846 0.01641 0.03589 0.0318 0.05333 0.05026 1.1067 1.1344 1.7169 2.6369 1.7169 4.2318v4.0861l2.2934-1.2492c0.1805-0.0984 0.2923-0.2913 0.2923-0.5036v-2.3456c0-1.5887 0.6041-3.0862 1.7005-4.2144l4.961-5.2769c0.321-0.34154 0.4974-0.78974 0.4974-1.2626v-0.96c0-0.4759-0.3753-0.86257-0.8348-0.86257h-15.252c-0.46051 0-0.8359 0.38667-0.8359 0.86257v0.96c0 0.47282 0.17641 0.92102 0.49744 1.2615l4.9108 5.2226zm1.4082 10.156c-0.20718 0-0.41231-0.0553-0.59897-0.1661-0.36103-0.2154-0.57744-0.5959-0.57744-1.0185v-4.6892c0-1.1641-0.43384-2.2605-1.2246-3.1005-0.02359-0.0195-0.04718-0.041-0.0677-0.0636l-4.9703-5.2851c-0.59077-0.62769-0.9159-1.4513-0.9159-2.3169v-0.96c0-1.3241 1.0656-2.401 2.3744-2.401h15.252c1.3077 0 2.3733 1.0769 2.3733 2.401v0.96c0 0.86461-0.3251 1.6872-0.9138 2.3159l-4.9713 5.2862c-0.8236 0.8492-1.2739 1.9661-1.2739 3.1518v2.3456c0 0.7754-0.4195 1.4852-1.0943 1.8544l-2.8318 1.5425c-0.17641 0.0954-0.3682 0.1436-0.56 0.1436z"
              clip-rule="evenodd" fill="#000" fill-rule="evenodd"/>
    </symbol>

    <symbol id="cross" viewBox="0 0 24 24">
        <g clip-path="url(#clip0_44_7095)">
            <path
                    d="M17.7071 7.70711C18.0976 7.31658 18.0976 6.68342 17.7071 6.29289C17.3166 5.90237 16.6834 5.90237 16.2929 6.29289L12 10.5858L7.70711 6.29289C7.31658 5.90237 6.68342 5.90237 6.29289 6.29289C5.90237 6.68342 5.90237 7.31658 6.29289 7.70711L10.5858 12L6.29289 16.2929C5.90237 16.6834 5.90237 17.3166 6.29289 17.7071C6.68342 18.0976 7.31658 18.0976 7.70711 17.7071L12 13.4142L16.2929 17.7071C16.6834 18.0976 17.3166 18.0976 17.7071 17.7071C18.0976 17.3166 18.0976 16.6834 17.7071 16.2929L13.4142 12L17.7071 7.70711Z"
                    fill="#686E81"/>
        </g>
        <defs>
            <clipPath id="clip0_44_7095">
                <rect width="24" height="24" fill="white"/>
            </clipPath>
        </defs>
    </symbol>

    <symbol id="store" viewBox="0 0 26 24">
        <path d="m8.5578 6.2475c-0.79653 0.31424-1.464 0.91192-1.8513 1.6998l-0.33232 0.67602c-0.17302 0.35196-0.29101 0.66474-0.32979 0.92621-0.03652 0.24631 0.00722 0.3656 0.06125 0.44063 0.19108 0.26529 0.48599 0.42189 0.80549 0.42189 0.52606 0 1.0085-0.44311 1.0085-1.0588v-0.10353l0.63819-3.0022zm2.128-0.24725-0.73147 3.4408c0.04334 0.56951 0.50447 0.97091 1.0052 0.97091 0.526 0 1.0085-0.44311 1.0085-1.0588v-3.353h-1.2822zm3.3136 0v3.353c0 0.60216 0.4819 1.0588 1.0374 1.0588 0.5273 0 0.9885-0.4117 1.0337-0.96872l-0.7548-3.443h-1.3163zm-4.1388-2c-2.1224 0-4.058 1.1948-4.9827 3.0757l-0.33232 0.67602c-0.20408 0.41514-0.42783 0.94518-0.51138 1.5086-0.08579 0.57855-0.03242 1.2662 0.41418 1.8864 0.25787 0.358 0.59375 0.6603 0.98429 0.8795v4.9738c0 1.626 1.3042 3 2.982 3h9.4847c1.6779 0 2.9821-1.374 2.9821-3v-5.1583c0.2181-0.157 0.414-0.3418 0.5826-0.5483 0.5293-0.6486 0.5956-1.3982 0.498-2.026-0.0949-0.61002-0.3534-1.186-0.5921-1.635l-0.3985-0.74993c-0.9417-1.7719-2.8048-2.8824-4.836-2.8824h-6.275zm7.5899 2.2582 0.6551 2.988v0.10669c0 0.6157 0.4824 1.0588 1.0084 1.0588 0.2991 0 0.5752-0.1366 0.7665-0.371 0.0636-0.07794 0.1156-0.20103 0.0736-0.47071-0.0447-0.28749-0.1837-0.63383-0.3839-1.0105l-0.3985-0.74994c-0.3782-0.71167-0.9932-1.2534-1.7212-1.5513zm-0.3656 5.3729c0.4734 0.4285 1.0835 0.711 1.7653 0.7694v4.5994c0 0.5833-0.4565 1-0.9507 1h-5.9243v-5.762c0.3794-0.1349 0.7223-0.3433 1.0134-0.6068 0.5407 0.4841 1.2564 0.7806 2.0482 0.7806s1.5074-0.2965 2.0481-0.7806zm-7.1411 0.6068c-0.37729-0.1342-0.7184-0.3409-1.0085-0.6024-0.40455 0.3647-0.90836 0.6229-1.4711 0.7262v4.6382c0 0.5833 0.45653 1 0.95064 1h1.529v-5.762z"
              clip-rule="evenodd" fill="#000" fill-rule="evenodd"/>
    </symbol>

    <symbol id="arrow-right" viewBox="0 0 44 44">
        <path d="m25.683 11.327c0.4268 0.4322 0.4225 1.1287-0.0098 1.5556l-0.1531 0.1513c-0.0987 0.0976-0.2416 0.239-0.4183 0.414-0.3532 0.3499-0.8413 0.8338-1.3801 1.37-1.0797 1.0742-2.3573 2.3519-3.1668 3.1829-0.6874 0.7057-1.5746 1.6194-2.2894 2.4743-0.3585 0.4287-0.6511 0.8162-0.8483 1.1357l-0.0079 0.0127c-0.1432 0.2338-0.1444 0.522-0.0031 0.7569 0.1859 0.3091 0.4598 0.6808 0.789 1.083 0.6554 0.8006 1.4506 1.6263 1.9829 2.1587l5.5 5.5c0.4296 0.4296 0.4296 1.1261 0 1.5556-0.4296 0.4296-1.1261 0.4296-1.5557 0l-6e-4 -6e-4 -8e-4 -9e-4 -5.4985-5.4985c-0.5511-0.551-1.4059-1.4366-2.1297-2.3208-0.3603-0.4403-0.7083-0.9044-0.9719-1.3426-0.2313-0.3846-0.5206-0.7811-0.5206-1.5144s0.3019-1.1513 0.5449-1.5449c0.2769-0.4484 0.645-0.9276 1.0325-1.3911 0.7772-0.9295 1.7232-1.9021 2.4013-2.5982 0.823-0.8449 2.112-2.1339 3.191-3.2074 0.5403-0.5377 1.0296-1.0228 1.3837-1.3736 0.1771-0.1753 0.3204-0.3171 0.4195-0.4151l0.1542-0.1524c0.4322-0.4268 1.1287-0.4225 1.5556 0.0098z"/>
    </symbol>

    <symbol id="arrow-left" viewBox="0 0 44 44">
        <path d="M18.3173 11.3271C17.8905 11.7593 17.8948 12.4558 18.3271 12.8827L18.4802 13.034C18.5789 13.1316 18.7218 13.273 18.8985 13.448C19.2517 13.7979 19.7398 14.2818 20.2786 14.818C21.3583 15.8922 22.6359 17.1699 23.4454 18.0009C24.1328 18.7066 25.02 19.6203 25.7348 20.4752C26.0933 20.9039 26.3859 21.2914 26.5831 21.6109L26.591 21.6236C26.7342 21.8574 26.7354 22.1456 26.5941 22.3805C26.4082 22.6896 26.1343 23.0613 25.8051 23.4635C25.1497 24.2641 24.3545 25.0898 23.8222 25.6222L18.3222 31.1222C17.8926 31.5518 17.8926 32.2483 18.3222 32.6778C18.7518 33.1074 19.4483 33.1074 19.8779 32.6778L19.8785 32.6772L19.8793 32.6763L25.3778 27.1778C25.9289 26.6268 26.7837 25.7412 27.5075 24.857C27.8678 24.4167 28.2158 23.9526 28.4794 23.5144C28.7107 23.1298 29 22.7333 29 22C29 21.2667 28.6981 20.8487 28.4551 20.4551C28.1782 20.0067 27.8101 19.5275 27.4226 19.064C26.6454 18.1345 25.6994 17.1619 25.0213 16.4658C24.1983 15.6209 22.9093 14.3319 21.8303 13.2584C21.29 12.7207 20.8007 12.2356 20.4466 11.8848C20.2695 11.7095 20.1262 11.5677 20.0271 11.4697L19.8729 11.3173C19.4407 10.8905 18.7442 10.8948 18.3173 11.3271Z"/>
    </symbol>

    <symbol id="instagram" viewBox="0 0 32 32">
        <g clip-path="url(#clip0_44_7116)">
            <path
                    d="M21.3766 11.57C21.9511 11.57 22.4169 11.1043 22.4169 10.5297C22.4169 9.9552 21.9511 9.48944 21.3766 9.48944C20.8021 9.48944 20.3363 9.9552 20.3363 10.5297C20.3363 11.1043 20.8021 11.57 21.3766 11.57Z"
                    fill="white"/>
            <path fill-rule="evenodd" clip-rule="evenodd"
                  d="M16.0007 11.3413C18.5749 11.3413 20.6616 13.428 20.6616 16.0022C20.6616 18.5763 18.5749 20.663 16.0007 20.663C13.4266 20.663 11.3398 18.5763 11.3398 16.0022C11.3398 13.428 13.4266 11.3413 16.0007 11.3413ZM19.0262 16.0022C19.0262 17.6731 17.6717 19.0276 16.0007 19.0276C14.3298 19.0276 12.9753 17.6731 12.9753 16.0022C12.9753 14.3312 14.3298 12.9767 16.0007 12.9767C17.6717 12.9767 19.0262 14.3312 19.0262 16.0022Z"
                  fill="white"/>
            <path fill-rule="evenodd" clip-rule="evenodd"
                  d="M0.146054 12.3092C0.492193 7.65837 0.665263 5.33295 2.99935 2.99886C5.33345 0.66477 7.65886 0.491702 12.3097 0.145564C13.5153 0.055837 14.759 0.00146484 16.0026 0.00146484C17.2463 0.00146484 18.4899 0.0558379 19.6955 0.145566C24.3463 0.491705 26.6718 0.664774 29.0059 2.99887C31.3399 5.33296 31.513 7.65837 31.8592 12.3092C31.9489 13.5148 32.0033 14.7585 32.0033 16.0021C32.0033 17.2458 31.9489 18.4894 31.8591 19.695C31.513 24.3459 31.3399 26.6713 29.0058 29.0054C26.6718 31.3395 24.3463 31.5125 19.6955 31.8587C18.4899 31.9484 17.2462 32.0028 16.0026 32.0028C14.759 32.0028 13.5153 31.9484 12.3097 31.8587C7.65886 31.5125 5.33344 31.3395 2.99935 29.0054C0.665258 26.6713 0.49219 24.3459 0.146053 19.695C0.0563252 18.4894 0.00195312 17.2458 0.00195312 16.0021C0.00195312 14.7585 0.0563262 13.5148 0.146054 12.3092ZM16.0011 7.33276C18.3554 7.33276 18.6506 7.34274 19.5753 7.38493C20.498 7.42702 21.1281 7.57358 21.6795 7.78789C22.2496 8.0094 22.7331 8.30582 23.215 8.78776C23.697 9.26973 23.9934 9.75318 24.2149 10.3232C24.4292 10.8747 24.5758 11.5048 24.6179 12.4275C24.6601 13.3522 24.67 13.6474 24.67 16.0018C24.67 18.3561 24.6601 18.6513 24.6179 19.576C24.5758 20.4987 24.4292 21.1289 24.2149 21.6803C23.9934 22.2504 23.697 22.7338 23.215 23.2158C22.7331 23.6977 22.2496 23.9941 21.6795 24.2157C21.1281 24.43 20.498 24.5765 19.5753 24.6186C18.6506 24.6608 18.3554 24.6708 16.0011 24.6708C13.6467 24.6708 13.3515 24.6608 12.4268 24.6186C11.5041 24.5765 10.8739 24.43 10.3225 24.2157C9.75244 23.9941 9.26899 23.6977 8.78702 23.2158C8.30509 22.7338 8.00865 22.2504 7.78715 21.6803C7.57283 21.1289 7.42628 20.4987 7.3842 19.576C7.34201 18.6513 7.33203 18.3561 7.33203 16.0018C7.33203 13.6474 7.34201 13.3522 7.3842 12.4275C7.42628 11.5048 7.57283 10.8747 7.78715 10.3232C8.00865 9.75318 8.30509 9.26973 8.78702 8.78776C9.26899 8.30582 9.75244 8.0094 10.3225 7.78789C10.8739 7.57358 11.5041 7.42702 12.4268 7.38493C13.3515 7.34274 13.6467 7.33276 16.0011 7.33276Z"
                  fill="white"/>
        </g>
        <defs>
            <clipPath id="clip0_44_7116">
                <rect width="32" height="32" fill="white"/>
            </clipPath>
        </defs>
    </symbol>

    <symbol id="twitter" viewBox="0 0 32 32">
        <g clip-path="url(#clip0_44_7117)">
            <path fill-rule="evenodd" clip-rule="evenodd"
                  d="M2.99642 2.99837C0.662333 5.33246 0.489263 7.65788 0.143124 12.3087C0.0533964 13.5143 -0.000976345 14.758 -0.000976562 16.0016C-0.00097678 17.2453 0.0533955 18.4889 0.143123 19.6945C0.48926 24.3454 0.662328 26.6708 2.99642 29.0049C5.33051 31.339 7.65593 31.512 12.3068 31.8582C13.5124 31.9479 14.756 32.0023 15.9997 32.0023C17.2433 32.0023 18.487 31.9479 19.6926 31.8582C24.3434 31.512 26.6688 31.339 29.0029 29.0049C31.337 26.6708 31.5101 24.3454 31.8562 19.6945C31.9459 18.4889 32.0003 17.2453 32.0003 16.0016C32.0003 14.758 31.9459 13.5143 31.8562 12.3087C31.5101 7.65789 31.337 5.33247 29.0029 2.99838C26.6688 0.664286 24.3434 0.491216 19.6926 0.145077C18.487 0.0553496 17.2433 0.00097678 15.9997 0.000976563C14.756 0.000976345 13.5124 0.0553487 12.3068 0.145076C7.65593 0.491213 5.33052 0.664282 2.99642 2.99837ZM16.4581 13.761L16.4199 13.1255C16.3053 11.4785 17.3116 9.97416 18.904 9.39057C19.4899 9.18308 20.4836 9.15714 21.1332 9.3387C21.388 9.41651 21.8721 9.67588 22.216 9.90931L22.8402 10.3373L23.5281 10.1168C23.9103 10.0001 24.4198 9.80557 24.6491 9.67588C24.8657 9.55917 25.0567 9.49432 25.0567 9.53323C25.0567 9.75369 24.5854 10.5059 24.1905 10.9209C23.6555 11.5044 23.8083 11.5563 24.8911 11.1673C25.5408 10.9468 25.5535 10.9468 25.4262 11.1932C25.3497 11.3229 24.9548 11.7768 24.5344 12.1918C23.8211 12.905 23.7829 12.9828 23.7829 13.5794C23.7829 14.5002 23.3498 16.4195 22.9166 17.4699C22.1141 19.4412 20.3944 21.4772 18.6747 22.5017C16.2543 23.9412 13.0314 24.3043 10.3181 23.4614C9.41367 23.1761 7.85955 22.4498 7.85955 22.3202C7.85955 22.2813 8.33088 22.2294 8.90412 22.2164C10.1016 22.1905 11.299 21.8533 12.3181 21.2567L13.006 20.8418L12.2162 20.5694C11.0952 20.1804 10.0888 19.2855 9.83404 18.4426C9.75761 18.1702 9.78309 18.1573 10.4965 18.1573L11.2353 18.1443L10.6111 17.846C9.87226 17.4699 9.19711 16.8345 8.86591 16.1861C8.62387 15.7192 8.31814 14.5391 8.40731 14.4483C8.43279 14.4094 8.7003 14.4872 9.00603 14.5909C9.885 14.9151 9.99965 14.8373 9.4901 14.2927C8.5347 13.3071 8.24171 11.8416 8.7003 10.454L8.91686 9.8315L9.75761 10.6745C11.4773 12.3733 13.5028 13.3849 15.8212 13.6831L16.4581 13.761Z"
                  fill="white"/>
        </g>
        <defs>
            <clipPath id="clip0_44_7117">
                <rect width="32" height="32" fill="white"/>
            </clipPath>
        </defs>
    </symbol>

    <symbol id="facebook" viewBox="0 0 32 32">
        <g clip-path="url(#clip0_44_7118)">
            <path fill-rule="evenodd" clip-rule="evenodd"
                  d="M0.142148 12.309C0.488287 7.65812 0.661356 5.33271 2.99545 2.99862C5.32954 0.664526 7.65496 0.491457 12.3058 0.14532C13.5114 0.0555928 14.7551 0.0012207 15.9987 0.0012207C17.2423 0.0012207 18.486 0.0555938 19.6916 0.145322C24.3424 0.491461 26.6679 0.66453 29.0019 2.99862C31.336 5.33271 31.5091 7.65813 31.8552 12.309C31.945 13.5146 31.9993 14.7582 31.9993 16.0019C31.9993 17.2455 31.945 18.4892 31.8552 19.6948C31.5091 24.3456 31.336 26.671 29.0019 29.0051C26.6679 31.3392 24.3424 31.5123 19.6916 31.8584C18.486 31.9481 17.2423 32.0025 15.9987 32.0025C14.755 32.0025 13.5114 31.9481 12.3058 31.8584C7.65495 31.5123 5.32953 31.3392 2.99544 29.0051C0.661352 26.671 0.488284 24.3456 0.142146 19.6948C0.052419 18.4892 -0.00195312 17.2455 -0.00195312 16.0019C-0.00195312 14.7582 0.05242 13.5146 0.142148 12.309ZM18.7435 28.586V17.4943L21.8053 17.4943L22.2111 13.6721H18.7435L18.7487 11.759C18.7487 10.7621 18.8434 10.228 20.2753 10.228H22.1894V6.40527H19.1272C15.4489 6.40527 14.1543 8.25948 14.1543 11.3777V13.6725H10.4844V17.4948H14.1543L14.1543 28.586L18.7435 28.586Z"
                  fill="white"/>
        </g>
        <defs>
            <clipPath id="clip0_44_7118">
                <rect width="32" height="32" fill="white"/>
            </clipPath>
        </defs>
    </symbol>

    <symbol id="discord" viewBox="0 0 32 32">
        <g clip-path="url(#clip0_44_7119)">
            <path fill-rule="evenodd" clip-rule="evenodd"
                  d="M2.99545 2.99935C0.661356 5.33344 0.488287 7.65886 0.142148 12.3097C0.05242 13.5153 -0.00195312 14.759 -0.00195312 16.0026C-0.00195312 17.2462 0.052419 18.4899 0.142146 19.6955C0.488284 24.3463 0.661352 26.6718 2.99544 29.0058C5.32953 31.3399 7.65495 31.513 12.3058 31.8591C13.5114 31.9489 14.755 32.0033 15.9987 32.0033C17.2423 32.0033 18.486 31.9489 19.6916 31.8592C24.3424 31.513 26.6679 31.3399 29.0019 29.0059C31.336 26.6718 31.5091 24.3463 31.8552 19.6955C31.945 18.4899 31.9993 17.2463 31.9993 16.0026C31.9993 14.759 31.945 13.5153 31.8552 12.3097C31.5091 7.65886 31.336 5.33345 29.0019 2.99935C26.6679 0.665263 24.3424 0.492193 19.6916 0.146054C18.486 0.0563262 17.2423 0.00195312 15.9987 0.00195312C14.7551 0.00195312 13.5114 0.0563252 12.3058 0.146053C7.65496 0.49219 5.32954 0.665258 2.99545 2.99935ZM25.9139 20.4678C26.3309 16.223 25.2154 12.5358 22.9566 9.26686C22.9511 9.25603 22.9419 9.24816 22.9306 9.24348C21.6559 8.66791 20.2892 8.24392 18.8599 8.00104C18.8471 7.99868 18.8339 8.00036 18.8221 8.00584C18.8104 8.01132 18.8007 8.02032 18.7944 8.03155C18.6187 8.33915 18.4239 8.7405 18.2874 9.05597C16.7502 8.82958 15.2209 8.82958 13.7152 9.05597C13.5787 8.73361 13.3769 8.33915 13.2004 8.03155C13.1869 8.00891 13.1609 7.9971 13.1349 8.00104C11.7064 8.24318 10.3397 8.66717 9.06392 9.24348C9.05292 9.24816 9.04342 9.25603 9.03717 9.26612C6.44442 13.0776 5.73418 16.7954 6.08268 20.4671C6.08418 20.4851 6.09443 20.5023 6.10868 20.5131C7.81917 21.7494 9.47642 22.4997 11.1027 22.9973C11.1287 23.0051 11.1562 22.9955 11.1729 22.9746C11.5574 22.4576 11.9004 21.9126 12.1944 21.3394C12.2119 21.3057 12.1952 21.2661 12.1599 21.2528C11.6159 21.0498 11.0979 20.8022 10.5997 20.521C10.5602 20.4983 10.5572 20.443 10.5934 20.4164C10.6982 20.3391 10.8032 20.2587 10.9032 20.1775C10.9214 20.1627 10.9467 20.1595 10.9679 20.1688C14.2409 21.6392 17.7844 21.6392 21.0191 20.1688C21.0404 20.1588 21.0656 20.1617 21.0844 20.1767C21.1847 20.2579 21.2894 20.3391 21.3951 20.4164C21.4314 20.443 21.4289 20.4983 21.3897 20.521C20.8914 20.8077 20.3734 21.0498 19.8287 21.2518C19.7932 21.2651 19.7774 21.3057 19.7947 21.3394C20.0951 21.9118 20.4382 22.4569 20.8157 22.9739C20.8234 22.9845 20.8344 22.9925 20.847 22.9967C20.8596 23.0009 20.8732 23.0011 20.8859 22.9973C22.5199 22.4997 24.1771 21.7494 25.8876 20.5131C25.9026 20.5023 25.9121 20.4858 25.9139 20.4678ZM12.6832 14.2645C13.6924 14.2645 14.4964 15.1626 14.4807 16.2481C14.4807 17.3412 13.6844 18.2315 12.6832 18.2315C11.6979 18.2315 10.8859 17.3412 10.8859 16.2481C10.8859 15.1548 11.6822 14.2645 12.6832 14.2645ZM19.3289 14.2645C20.3379 14.2645 21.1419 15.1626 21.1262 16.2481C21.1262 17.3412 20.3379 18.2315 19.3289 18.2315C18.3434 18.2315 17.5314 17.3412 17.5314 16.2481C17.5314 15.1548 18.3277 14.2645 19.3289 14.2645Z"
                  fill="white"/>
        </g>
        <defs>
            <clipPath id="clip0_44_7119">
                <rect width="32" height="32" fill="white"/>
            </clipPath>
        </defs>
    </symbol>

    <symbol id="pinterest" viewBox="0 0 32 32">
        <g clip-path="url(#clip0_44_7124)">
            <path fill-rule="evenodd" clip-rule="evenodd"
                  d="M2.99545 2.99935C0.661356 5.33344 0.488287 7.65886 0.142148 12.3097C0.05242 13.5153 -0.00195312 14.759 -0.00195312 16.0026C-0.00195312 17.2462 0.052419 18.4899 0.142146 19.6955C0.488284 24.3463 0.661352 26.6718 2.99544 29.0058C5.32953 31.3399 7.65495 31.513 12.3058 31.8591C13.5114 31.9489 14.755 32.0033 15.9987 32.0033C17.2423 32.0033 18.486 31.9489 19.6916 31.8592C24.3424 31.513 26.6679 31.3399 29.0019 29.0059C31.336 26.6718 31.5091 24.3463 31.8552 19.6955C31.945 18.4899 31.9993 17.2463 31.9993 16.0026C31.9993 14.759 31.945 13.5153 31.8552 12.3097C31.5091 7.65886 31.336 5.33345 29.0019 2.99935C26.6679 0.665263 24.3424 0.492193 19.6916 0.146054C18.486 0.0563262 17.2423 0.00195312 15.9987 0.00195312C14.7551 0.00195312 13.5114 0.0563252 12.3058 0.146053C7.65496 0.49219 5.32954 0.665258 2.99545 2.99935ZM11.0227 17.2229C10.9472 17.5163 10.7209 17.5897 10.4191 17.5163C8.75922 16.8561 7.92927 15.0957 8.00472 13.1885C8.00472 9.96102 10.7963 6 16.4551 6C20.982 6 24 9.15415 24 12.6017C24 17.1495 21.4347 20.5237 17.5868 20.5237C16.3042 20.5237 15.097 19.7902 14.7197 19.0567C14.7197 19.0567 14.0407 21.6974 13.8898 22.2109C13.4371 23.9713 11.9281 25.8051 11.7772 25.9518C11.7017 26.0252 11.4754 26.0252 11.4754 25.8785C11.3999 25.6584 11.0227 23.3111 11.4754 21.4773C11.7017 20.5238 12.9844 15.169 12.9844 15.169C12.9844 15.169 12.6071 14.4355 12.6071 13.3352C12.6071 11.5748 13.588 10.3278 14.8706 10.3278C15.9269 10.3278 16.4551 11.1347 16.4551 12.0882C16.4551 12.8132 16.1602 13.7293 15.8512 14.6896C15.6912 15.1866 15.5274 15.6956 15.3988 16.196C15.097 17.3696 16.0778 18.3965 17.285 18.3965C19.5485 18.3965 21.0575 15.5358 21.0575 12.2349C21.0575 9.74097 19.3221 7.83381 16.1533 7.83381C12.6071 7.83381 10.3437 10.4011 10.3437 13.3352C10.3437 14.3622 10.6455 15.0957 11.0981 15.6091C11.3245 15.9026 11.3245 15.9759 11.249 16.2693C11.2113 16.3793 11.1736 16.5627 11.1359 16.7461C11.0981 16.9295 11.0604 17.1129 11.0227 17.2229Z"
                  fill="white"/>
        </g>
        <defs>
            <clipPath id="clip0_44_7124">
                <rect width="32" height="32" fill="white"/>
            </clipPath>
        </defs>
    </symbol>

    <symbol id="uk" viewBox="0 0 512 512">
        <g fill-rule="nonzero">
            <path fill="#fff"
                  d="M256 19.48c65.3 0 124.46 26.48 167.25 69.27l1.09 1.18c42.14 42.71 68.18 101.37 68.18 166.06 0 65.31-26.5 124.46-69.29 167.25l-1.18 1.09c-42.73 42.16-101.4 68.19-166.05 68.19-65.23 0-124.37-26.51-167.18-69.33-42.84-42.74-69.33-101.89-69.33-167.2 0-65.31 26.48-124.45 69.27-167.24C131.55 45.96 190.7 19.48 256 19.48z"/>
            <path fill="#FEFEFE"
                  d="M256 39.59c119.52 0 216.41 96.89 216.41 216.4 0 119.52-96.89 216.42-216.41 216.42-119.51 0-216.4-96.9-216.4-216.42 0-119.51 96.89-216.4 216.4-216.4z"/>
            <path fill="#012169"
                  d="M183.49 179.55V52.05c-41.32 14.7-76.85 41.61-102.27 76.35l102.27 51.15zm0 152.9v127.5c-41.3-14.7-76.82-41.59-102.26-76.35l102.26-51.15zm144.55 0v127.67c41.45-14.63 77.09-41.54 102.61-76.34l-102.61-51.33zm0-152.9V51.88c41.45 14.63 77.11 41.54 102.62 76.35l-102.62 51.32z"/>
            <path fill="#C8102E"
                  d="M448.3 328.16h-48.11l49.35 24.72c3.21-6.41 6.11-13 8.69-19.75l-9.93-4.97zm-9.34-187.76-86.42 43.33h48.11l48.95-24.5c-3.23-6.46-6.79-12.75-10.64-18.83zM212.41 299.26v168.75c14.08 2.87 28.66 4.4 43.59 4.4 14.76 0 29.19-1.49 43.13-4.3V299.26h168.94c2.83-13.98 4.34-28.44 4.34-43.27 0-14.88-1.51-29.42-4.37-43.47H299.13V43.9A217.404 217.404 0 0 0 256 39.59c-14.93 0-29.51 1.54-43.59 4.4v168.53H43.97a217.777 217.777 0 0 0-4.37 43.47c0 14.83 1.51 29.29 4.34 43.27h168.47zM63.12 183.84h48.11l-48.89-24.48c-3.2 6.41-6.11 13.02-8.68 19.76l9.46 4.72zm95.87 144.43h-48.11l-48.57 24.31A216.76 216.76 0 0 0 73 371.52l86.43-43.25h-.44z"/>
        </g>
    </symbol>

    <symbol id="favorite" viewBox="0 0 24 24">
        <g clip-path="url(#clip0_44_7068)">
            <path
                    d="M6.13889 15.2929C4.15013 13.349 3.28364 12.4586 3.0619 10.9818L3.01527 10.3715C3.00517 10.2392 3 10.1053 3 9.96987C3 7.19799 5.15193 5.01779 7.7256 5.01779C9.10996 5.01779 10.3625 5.64135 11.2338 6.65241L11.9943 7.53478L12.7514 6.64948C13.6234 5.62972 14.8818 5 16.2733 5C18.8479 5 21 7.18026 21 9.95161C21 10.0922 20.9945 10.2313 20.9836 10.3685L20.9317 11.0214C20.7005 12.4747 19.8318 13.3665 17.8609 15.2929L17.8608 15.2929C17.7986 15.3538 17.7359 15.4144 17.673 15.4745C17.199 15.9273 16.7017 16.3629 16.2022 16.7741C14.1696 18.4471 13.4442 19 11.9999 19C10.5555 19 9.8301 18.4471 7.79753 16.7741C7.29806 16.3629 6.8007 15.9273 6.32675 15.4745C6.26382 15.4144 6.20119 15.3538 6.13889 15.2929Z"
                    fill="white" stroke="black" stroke-width="2" stroke-linecap="round"/>
        </g>
        <defs>
            <clipPath id="clip0_44_7068">
                <rect width="24" height="24" fill="white"/>
            </clipPath>
        </defs>
    </symbol>

    <symbol id="account" viewBox="0 0 24 24">
        <path
                d="M12.0189 20.9996C9.58372 20.9996 7.34338 20.8705 5.79651 20.4152C5.02213 20.1872 4.53762 19.9095 4.27556 19.629C4.05922 19.3975 3.94748 19.1204 4.02365 18.6629C4.24521 17.3324 4.85718 15.9682 5.66821 14.9021C6.49616 13.8137 7.42245 13.1729 8.20665 13.0384C9.18868 12.8699 9.5692 12.9725 9.8943 13.0797C9.95635 13.1001 10.0218 13.1233 10.0917 13.1481C10.5087 13.2961 11.0821 13.4995 12.0189 13.4995C12.9512 13.4995 13.534 13.299 13.9614 13.1519C14.0332 13.1272 14.1007 13.104 14.1646 13.0836C14.5105 12.9728 14.9035 12.8723 15.868 13.0383C16.6241 13.1684 17.5305 13.8136 18.3555 14.9254C19.1607 16.0104 19.775 17.3934 20.0154 18.7165C20.0952 19.1555 19.9894 19.4174 19.7779 19.6411C19.5172 19.9168 19.03 20.1924 18.249 20.419C16.692 20.8707 14.44 20.9996 12.0189 20.9996Z"
                fill="white" stroke="black" stroke-width="2" stroke-linecap="round" stroke-linejoin="round"/>
        <path
                d="M9.03713 7.50254H9.03713V7.49953C9.03713 5.45289 10.488 4 12.0375 4C13.5869 4 15.0371 5.4526 15.0371 7.49953C15.0371 9.54675 13.5866 11 12.0375 11H12.0114C10.4708 10.993 9.03101 9.54072 9.03713 7.50254Z"
                fill="white" stroke="black" stroke-width="2" stroke-linecap="round" stroke-linejoin="round"/>
    </symbol>
</svg>